<?xml version="1.0" standalone="no"?>
<!DOCTYPE svg PUBLIC "-//W3C//DTD SVG 20010904//EN"
 "http://www.w3.org/TR/2001/REC-SVG-20010904/DTD/svg10.dtd">
<svg version="1.0" xmlns="http://www.w3.org/2000/svg"
 width="512.000000pt" height="512.000000pt" viewBox="0 0 512.000000 512.000000"
 preserveAspectRatio="xMidYMid meet">
<metadata>
Created by potrace 1.14, written by Peter Selinger 2001-2017
</metadata>
<g transform="translate(0.000000,512.000000) scale(0.100000,-0.100000)"
fill="#000000" stroke="none">
<path d="M2442 4914 c-66 -17 -145 -68 -199 -126 -128 -140 -148 -343 -50
-510 28 -49 113 -132 152 -150 l25 -11 0 -139 0 -138 -442 -1 c-244 0 -454 -2
-467 -5 -124 -23 -234 -145 -247 -274 -1 -14 -2 -30 -3 -35 -1 -7 -52 -10
-136 -10 -124 0 -136 -2 -156 -22 -22 -21 -22 -24 -22 -518 0 -600 -19 -539
171 -542 70 -1 132 -2 137 -2 6 -1 11 -22 13 -48 7 -120 119 -246 238 -267 16
-3 147 -6 292 -7 l263 -1 -3 -106 -3 -107 -425 0 c-395 -1 -429 -2 -478 -20
-90 -33 -164 -112 -193 -207 -8 -25 -15 -1151 -10 -1410 1 -16 10 -37 21 -48
20 -20 33 -20 1638 -20 1615 0 1618 0 1640 20 15 14 22 33 23 58 6 361 0 1365
-9 1395 -27 97 -102 178 -194 212 -49 18 -85 19 -473 21 -231 1 -423 2 -427 3
-5 0 -8 48 -8 106 l0 105 271 -1 c185 0 282 4 307 12 114 37 201 142 215 258
2 23 7 44 10 47 3 4 63 6 133 7 115 0 129 2 152 22 l25 22 0 497 c-1 491 -1
499 -22 519 -19 19 -32 21 -156 21 -128 1 -141 3 -136 30 1 4 -6 33 -14 64
-21 70 -64 134 -118 173 -79 57 -98 59 -584 59 l-443 0 0 138 0 139 25 11 c39
18 124 101 152 150 197 335 -110 738 -485 636z m239 -152 c107 -52 163 -142
164 -262 0 -88 -24 -147 -83 -205 -60 -58 -115 -80 -202 -80 -88 0 -145 23
-204 83 -58 57 -80 114 -81 203 0 104 39 179 123 238 78 55 198 64 283 23z
m-71 -807 l0 -115 -50 0 -50 0 0 115 0 115 50 0 50 0 0 -115z m1084 -289 c75
-57 73 -33 71 -698 -1 -398 -5 -601 -12 -618 -14 -33 -61 -76 -96 -89 -19 -8
-367 -11 -1098 -11 -886 0 -1075 2 -1102 14 -42 18 -82 63 -95 106 -6 22 -10
248 -9 626 l2 591 28 36 c15 21 45 46 65 57 36 19 62 19 1123 17 l1086 -2 37
-29z m-2483 -316 c1 -31 1 -751 0 -766 -1 -7 -32 -11 -86 -11 -71 0 -85 3 -86
16 -3 79 0 771 4 778 3 5 42 8 86 9 80 0 81 -1 82 -26z m2870 20 c0 -7 1 -716
0 -761 l-1 -35 -85 0 c-71 -1 -85 2 -86 15 0 9 -1 188 -2 398 -2 333 0 383 13
385 25 5 160 3 161 -2z m-1113 -1368 l-3 -107 -395 -1 c-217 0 -401 2 -407 4
-9 3 -13 34 -13 108 l0 104 410 -1 411 0 -3 -107z m1017 -264 c39 -21 71 -56
85 -93 9 -22 12 -202 12 -655 -1 -344 -1 -633 -1 -642 -1 -17 -21 -18 -276
-18 l-275 0 0 334 c0 314 -1 335 -19 357 l-19 24 -928 1 -927 2 -24 -24 -23
-23 0 -336 0 -335 -275 0 c-255 0 -275 1 -276 18 0 9 -1 297 -1 638 0 440 3
632 11 656 14 43 58 86 103 101 26 9 382 12 1419 12 1252 -1 1387 -2 1414 -17z
m-595 -1119 l0 -289 -830 0 -830 0 0 289 0 289 830 0 830 0 0 -289z"/>
<path d="M1830 3435 c-142 -37 -231 -146 -236 -289 -6 -149 85 -273 228 -310
75 -19 142 -11 215 24 114 56 173 156 169 285 -2 78 -21 127 -72 190 -66 84
-199 127 -304 100z m171 -165 c34 -25 69 -95 69 -139 0 -33 -21 -83 -49 -115
-26 -30 -71 -48 -120 -49 -123 -1 -203 122 -153 235 43 99 164 131 253 68z"/>
<path d="M3208 3445 c-1 -1 -22 -5 -45 -9 -23 -3 -61 -15 -83 -26 -205 -105
-226 -399 -37 -528 216 -148 508 19 484 278 -12 137 -114 252 -242 275 -22 4
-47 9 -57 11 -9 1 -18 1 -20 -1z m115 -177 c34 -24 67 -89 67 -133 0 -37 -30
-104 -58 -128 -11 -11 -37 -25 -58 -32 -135 -46 -261 86 -209 220 39 103 165
139 258 73z"/>
<path d="M2103 2575 c-34 -29 -36 -60 -8 -93 l23 -27 441 0 c438 0 441 0 462
22 27 27 28 69 0 96 -21 21 -25 22 -458 22 -424 0 -438 0 -460 -20z"/>
<path d="M1276 1647 c-57 -14 -122 -82 -131 -136 -22 -131 62 -235 187 -234
136 2 225 152 162 274 -41 81 -127 119 -218 96z m95 -164 c9 -24 -4 -58 -27
-67 -22 -8 -59 19 -62 46 -6 53 70 72 89 21z"/>
<path d="M3737 1645 c-87 -30 -131 -91 -131 -180 0 -49 5 -68 27 -101 83 -123
261 -114 328 19 27 53 22 141 -11 187 -48 67 -141 100 -213 75z m91 -148 c28
-22 12 -65 -31 -80 -26 -9 -60 28 -52 56 13 43 46 53 83 24z"/>
</g>
</svg>
